<svg width="35" height="35" viewBox="0 0 35 35" fill="none" xmlns="http://www.w3.org/2000/svg">
<path d="M13.6111 0H1.94444C0.869167 0 0 0.869167 0 1.94444V13.6111C0 14.6864 0.869167 15.5556 1.94444 15.5556H13.6111C14.6864 15.5556 15.5556 14.6864 15.5556 13.6111V1.94444C15.5556 0.869167 14.6864 0 13.6111 0ZM11.6667 11.6667H3.88889V3.88889H11.6667V11.6667ZM33.0556 19.4444H21.3889C20.3136 19.4444 19.4444 20.3136 19.4444 21.3889V33.0556C19.4444 34.1308 20.3136 35 21.3889 35H33.0556C34.1308 35 35 34.1308 35 33.0556V21.3889C35 20.3136 34.1308 19.4444 33.0556 19.4444ZM31.1111 31.1111H23.3333V23.3333H31.1111V31.1111ZM27.2222 0C22.9328 0 19.4444 3.48833 19.4444 7.77778C19.4444 12.0672 22.9328 15.5556 27.2222 15.5556C31.5117 15.5556 35 12.0672 35 7.77778C35 3.48833 31.5117 0 27.2222 0ZM27.2222 11.6667C25.0775 11.6667 23.3333 9.9225 23.3333 7.77778C23.3333 5.63306 25.0775 3.88889 27.2222 3.88889C29.3669 3.88889 31.1111 5.63306 31.1111 7.77778C31.1111 9.9225 29.3669 11.6667 27.2222 11.6667ZM7.77778 19.4444C3.48833 19.4444 0 22.9328 0 27.2222C0 31.5117 3.48833 35 7.77778 35C12.0672 35 15.5556 31.5117 15.5556 27.2222C15.5556 22.9328 12.0672 19.4444 7.77778 19.4444ZM7.77778 31.1111C5.63306 31.1111 3.88889 29.3669 3.88889 27.2222C3.88889 25.0775 5.63306 23.3333 7.77778 23.3333C9.9225 23.3333 11.6667 25.0775 11.6667 27.2222C11.6667 29.3669 9.9225 31.1111 7.77778 31.1111Z" fill="black"/>
</svg>
