<svg width="26" height="24" viewBox="0 0 26 24" fill="none" xmlns="http://www.w3.org/2000/svg">
<path d="M22.6168 7.00001C22.4314 6.70063 22.1659 6.45114 21.8462 6.27588C21.5266 6.10062 21.1636 6.00557 20.7928 6.00001H7.05947L6.43717 3.74001C6.3743 3.52184 6.23403 3.32995 6.03921 3.19558C5.84438 3.06121 5.60648 2.99227 5.36426 3.00001H3.21842C2.93387 3.00001 2.66097 3.10536 2.45976 3.2929C2.25855 3.48044 2.14551 3.73479 2.14551 4.00001C2.14551 4.26522 2.25855 4.51958 2.45976 4.70711C2.66097 4.89465 2.93387 5.00001 3.21842 5.00001H4.54884L7.51009 15.26C7.57296 15.4782 7.71324 15.6701 7.90806 15.8044C8.10289 15.9388 8.34078 16.0077 8.58301 16H18.2393C18.4374 15.9994 18.6315 15.9478 18.8 15.8507C18.9686 15.7536 19.105 15.6149 19.1942 15.45L22.7133 8.89001C22.8659 8.59202 22.9369 8.26348 22.92 7.93369C22.9032 7.6039 22.799 7.28313 22.6168 7.00001ZM17.574 14H9.39843L7.64957 8.00001H20.7928L17.574 14Z" fill="white"/>
<path d="M8.04688 21C8.93571 21 9.65625 20.3284 9.65625 19.5C9.65625 18.6716 8.93571 18 8.04688 18C7.15804 18 6.4375 18.6716 6.4375 19.5C6.4375 20.3284 7.15804 21 8.04688 21Z" fill="white"/>
<path d="M18.7754 21C19.6642 21 20.3848 20.3284 20.3848 19.5C20.3848 18.6716 19.6642 18 18.7754 18C17.8866 18 17.166 18.6716 17.166 19.5C17.166 20.3284 17.8866 21 18.7754 21Z" fill="white"/>
</svg>
