<svg width="35" height="35" viewBox="0 0 35 35" fill="none" xmlns="http://www.w3.org/2000/svg">
<path fill-rule="evenodd" clip-rule="evenodd" d="M7 16.6241C7.00006 16.7392 6.97744 16.8531 6.93344 16.9594C6.88945 17.0657 6.82493 17.1622 6.74359 17.2436C6.66225 17.3249 6.56567 17.3894 6.45938 17.4334C6.35308 17.4774 6.23916 17.5001 6.12413 17.5H0.875875C0.760838 17.5001 0.646916 17.4774 0.540624 17.4334C0.434332 17.3894 0.337753 17.3249 0.25641 17.2436C0.175066 17.1622 0.110552 17.0657 0.0665554 16.9594C0.0225589 16.8531 -5.73951e-05 16.7392 1.09383e-07 16.6241V11.3759C-5.73951e-05 11.2608 0.0225589 11.1469 0.0665554 11.0406C0.110552 10.9343 0.175066 10.8378 0.25641 10.7564C0.337753 10.6751 0.434332 10.6106 0.540624 10.5666C0.646916 10.5226 0.760838 10.4999 0.875875 10.5H6.12413C6.23916 10.4999 6.35308 10.5226 6.45938 10.5666C6.56567 10.6106 6.66225 10.6751 6.74359 10.7564C6.82493 10.8378 6.88945 10.9343 6.93344 11.0406C6.97744 11.1469 7.00006 11.2608 7 11.3759V16.6241ZM14 34.1241C14.0001 34.2392 13.9774 34.3531 13.9334 34.4594C13.8894 34.5657 13.8249 34.6622 13.7436 34.7436C13.6622 34.8249 13.5657 34.8895 13.4594 34.9334C13.3531 34.9774 13.2392 35.0001 13.1241 35H7.87587C7.76084 35.0001 7.64692 34.9774 7.54062 34.9334C7.43433 34.8895 7.33775 34.8249 7.25641 34.7436C7.17507 34.6622 7.11055 34.5657 7.06656 34.4594C7.02256 34.3531 6.99994 34.2392 7 34.1241V28.8759C6.99994 28.7608 7.02256 28.6469 7.06656 28.5406C7.11055 28.4343 7.17507 28.3378 7.25641 28.2564C7.33775 28.1751 7.43433 28.1105 7.54062 28.0666C7.64692 28.0226 7.76084 27.9999 7.87587 28H13.1241C13.2392 27.9999 13.3531 28.0226 13.4594 28.0666C13.5657 28.1105 13.6622 28.1751 13.7436 28.2564C13.8249 28.3378 13.8894 28.4343 13.9334 28.5406C13.9774 28.6469 14.0001 28.7608 14 28.8759V34.1241ZM35 20.1241C35.0001 20.2392 34.9774 20.3531 34.9334 20.4594C34.8895 20.5657 34.8249 20.6622 34.7436 20.7436C34.6622 20.8249 34.5657 20.8895 34.4594 20.9334C34.3531 20.9774 34.2392 21.0001 34.1241 21H28.8759C28.7608 21.0001 28.6469 20.9774 28.5406 20.9334C28.4343 20.8895 28.3378 20.8249 28.2564 20.7436C28.1751 20.6622 28.1105 20.5657 28.0666 20.4594C28.0226 20.3531 27.9999 20.2392 28 20.1241V14.8759C27.9999 14.7608 28.0226 14.6469 28.0666 14.5406C28.1105 14.4343 28.1751 14.3378 28.2564 14.2564C28.3378 14.1751 28.4343 14.1106 28.5406 14.0666C28.6469 14.0226 28.7608 13.9999 28.8759 14H34.1241C34.2392 13.9999 34.3531 14.0226 34.4594 14.0666C34.5657 14.1106 34.6622 14.1751 34.7436 14.2564C34.8249 14.3378 34.8895 14.4343 34.9334 14.5406C34.9774 14.6469 35.0001 14.7608 35 14.8759V20.1241ZM14 23.6241C13.9999 23.7392 14.0226 23.8531 14.0666 23.9594C14.1106 24.0657 14.1751 24.1622 14.2564 24.2436C14.3378 24.3249 14.4343 24.3895 14.5406 24.4334C14.6469 24.4774 14.7608 24.5001 14.8759 24.5H20.1241C20.2392 24.5001 20.3531 24.4774 20.4594 24.4334C20.5657 24.3895 20.6622 24.3249 20.7436 24.2436C20.8249 24.1622 20.8895 24.0657 20.9334 23.9594C20.9774 23.8531 21.0001 23.7392 21 23.6241V18.3759C21.0001 18.2608 20.9774 18.1469 20.9334 18.0406C20.8895 17.9343 20.8249 17.8378 20.7436 17.7564C20.6622 17.6751 20.5657 17.6105 20.4594 17.5666C20.3531 17.5226 20.2392 17.4999 20.1241 17.5H14.8759C14.7608 17.4999 14.6469 17.5226 14.5406 17.5666C14.4343 17.6105 14.3378 17.6751 14.2564 17.7564C14.1751 17.8378 14.1106 17.9343 14.0666 18.0406C14.0226 18.1469 13.9999 18.2608 14 18.3759V23.6241ZM21 6.12413C20.9999 6.23916 21.0226 6.35308 21.0666 6.45938C21.1105 6.56567 21.1751 6.66225 21.2564 6.74359C21.3378 6.82493 21.4343 6.88945 21.5406 6.93344C21.6469 6.97744 21.7608 7.00006 21.8759 7H27.1241C27.2392 7.00006 27.3531 6.97744 27.4594 6.93344C27.5657 6.88945 27.6622 6.82493 27.7436 6.74359C27.8249 6.66225 27.8895 6.56567 27.9334 6.45938C27.9774 6.35308 28.0001 6.23916 28 6.12413V0.875875C28.0001 0.760838 27.9774 0.646916 27.9334 0.540624C27.8895 0.434332 27.8249 0.337753 27.7436 0.25641C27.6622 0.175066 27.5657 0.110552 27.4594 0.0665554C27.3531 0.0225589 27.2392 -5.73951e-05 27.1241 1.09383e-07H21.8759C21.7608 -5.73951e-05 21.6469 0.0225589 21.5406 0.0665554C21.4343 0.110552 21.3378 0.175066 21.2564 0.25641C21.1751 0.337753 21.1105 0.434332 21.0666 0.540624C21.0226 0.646916 20.9999 0.760838 21 0.875875V6.12413Z" fill="black"/>
</svg>
