<svg width="38" height="38" viewBox="0 0 38 38" fill="none" xmlns="http://www.w3.org/2000/svg">
<path d="M2 23.25V19C2 9.61116 9.61116 2 19 2C28.3888 2 36 9.61116 36 19V23.25M2 23.25V34.3C2 35.2389 2.76112 36 3.7 36H10.0143C10.9532 36 11.7143 35.2389 11.7143 34.3V24.95C11.7143 24.0111 10.9532 23.25 10.0143 23.25H2ZM36 23.25V34.3C36 35.2389 35.2389 36 34.3 36H27.9857C27.0468 36 26.2857 35.2389 26.2857 34.3V24.95C26.2857 24.0111 27.0468 23.25 27.9857 23.25H36Z" stroke="black" stroke-width="3.4" stroke-linecap="round" stroke-linejoin="round"/>
</svg>
