<svg width="24" height="24" viewBox="0 0 24 24" fill="none" xmlns="http://www.w3.org/2000/svg">
<path d="M22.9992 17.91C23.0192 18.66 22.8192 19.37 22.4592 19.98C22.2592 20.34 21.9892 20.67 21.6892 20.94C20.9992 21.58 20.0892 21.97 19.0792 22C17.6192 22.03 16.3292 21.28 15.6192 20.13C15.2392 19.54 15.0092 18.83 14.9992 18.08C14.9692 16.82 15.5292 15.68 16.4292 14.93C17.1092 14.37 17.9692 14.02 18.9092 14C19.4345 13.988 19.957 14.0797 20.4469 14.2698C20.9368 14.4598 21.3845 14.7445 21.7643 15.1076C22.1441 15.4707 22.4486 15.9051 22.6605 16.386C22.8724 16.8668 22.9875 17.3847 22.9992 17.91Z" stroke="#3C3C3C" stroke-width="1.5" stroke-miterlimit="10" stroke-linecap="round" stroke-linejoin="round"/>
<path d="M17.4399 18.03L18.4499 18.99L20.5399 16.97M3.16992 7.44L11.9999 12.55L20.7699 7.47M11.9999 21.61V12.54" stroke="#3C3C3C" stroke-width="1.5" stroke-linecap="round" stroke-linejoin="round"/>
<path d="M21.6106 9.17V14.83C21.6106 14.88 21.6106 14.92 21.6006 14.97C20.9006 14.36 20.0006 14 19.0006 14C18.0606 14 17.1906 14.33 16.5006 14.88C16.0312 15.253 15.6524 15.7275 15.3926 16.2679C15.1328 16.8083 14.9988 17.4004 15.0006 18C15.0006 18.75 15.2106 19.46 15.5806 20.06C15.6706 20.22 15.7806 20.37 15.9006 20.51L14.0706 21.52C12.9306 22.16 11.0706 22.16 9.93062 21.52L4.59063 18.56C3.38063 17.89 2.39062 16.21 2.39062 14.83V9.17C2.39062 7.79 3.38063 6.11 4.59063 5.44L9.93062 2.48C11.0706 1.84 12.9306 1.84 14.0706 2.48L19.4106 5.44C20.6206 6.11 21.6106 7.79 21.6106 9.17Z" stroke="#3C3C3C" stroke-width="1.5" stroke-linecap="round" stroke-linejoin="round"/>
</svg>
