<svg width="30" height="30" viewBox="0 0 30 30" fill="none" xmlns="http://www.w3.org/2000/svg">
<path d="M6.74132 23.5545C7.94094 25 10.1736 25 14.6391 25H15.3602C19.8257 25 22.0584 25 23.258 23.5545M6.74132 23.5545C5.5417 22.1091 5.95316 19.9146 6.77608 15.5257C7.3613 12.4045 7.65392 10.8439 8.76481 9.92196M6.74132 23.5545C6.74132 23.5545 6.74132 23.5545 6.74132 23.5545ZM23.258 23.5545C24.4576 22.1091 24.0461 19.9146 23.2232 15.5257C22.638 12.4045 22.3454 10.8439 21.2345 9.92196M23.258 23.5545C23.258 23.5545 23.258 23.5545 23.258 23.5545ZM21.2345 9.92196C20.1236 9 18.5358 9 15.3602 9H14.6391C11.4635 9 9.87571 9 8.76481 9.92196M21.2345 9.92196C21.2345 9.92196 21.2345 9.92196 21.2345 9.92196ZM8.76481 9.92196C8.76481 9.92196 8.76482 9.92196 8.76481 9.92196Z" stroke="#E81D1C" stroke-width="1.5"/>
<path d="M13 17.3C13.5207 17.7686 13.8126 18.0314 14.3333 18.5L17 15.5" stroke="#E81D1C" stroke-width="1.5" stroke-linecap="round" stroke-linejoin="round"/>
<path d="M12 9V8C12 6.34315 13.3431 5 15 5C16.6569 5 18 6.34315 18 8V9" stroke="#E81D1C" stroke-width="1.5" stroke-linecap="round"/>
</svg>
